<svg xmlns="http://www.w3.org/2000/svg" width="412" height="76" viewBox="0 0 412 76">
  <defs>
    <style>
      .cls-1 {
        fill: #fff;
      }
    </style>
  </defs>
  <path id="Autovis" class="cls-1" d="M59.495,39.655Q47.518,8.581,45.041,3.276q-0.809-1.667-1.769-1.667-1.315,0-3.967.177t-4.018.177q-1.415,0-4.27-.253T26.8,1.457q-0.809,0-1.415,1.92Q24.321,6.712,11.94,40.211,0.518,71.184.518,72.5q0,1.466,7.732,1.465,9.8,0,11.522-.4,1.365-.353,2.325-4.547,1.061-4.6,1.92-5.406,0.555-.455,9.147-0.455,12.735,0,13.544.354,0.959,0.506,2.678,7.781a2.723,2.723,0,0,0,2.173,2.274,63.888,63.888,0,0,0,9.3.4q7.884,0,9.4-.4A1.383,1.383,0,0,0,71.523,72.3q0-1.364-12.028-32.64h0ZM39.027,35.563q2.324,7.529,2.325,9.2a1.972,1.972,0,0,1-.1.707q-0.354.809-3.689,0.808-3.589,0-5.155-.1-3.032-.1-3.032-1.011,0-1.364,2.729-9.246,2.526-7.427,3.588-9.651a71.5,71.5,0,0,1,3.336,9.3h0Zm97.941,8.312q-0.051-3.259-.05-4.876,0-5.861.48-17.583t0.48-17.533q0-1.213-1.466-1.213-2.982,0-9,.253t-9,.253q-1.263,0-1.263,1.566,0,7.327.354,21.979T117.865,48.7q0,10.055-10.36,10.055-7.076,0-9.3-3.79-1.668-2.778-1.668-10.712,0-6.669.43-19.983T97.4,4.287a1.055,1.055,0,0,0-1.263-1.112q-3.083,0-9.324-.253T77.486,2.67a1.01,1.01,0,0,0-1.061,1.213q0,5.811.556,17.533T77.537,39q0,2.021-.152,6.114t-0.152,6.164q0,8.943,1.314,12.429,2.627,7.124,11.421,9.651,5.508,1.566,15.717,1.566,22.59,0,28.25-8.59,3.083-4.7,3.083-17.583Q137.019,47.133,136.968,43.874Zm58.9-29.406a30.394,30.394,0,0,1-.328-3.714q0-1.111.1-3.789,0.1-2.425.1-3.789a1.852,1.852,0,0,0-.2-0.985,2.773,2.773,0,0,0-1.163-.126q-0.049,0-6.62.505-12.231.96-16.778,0.96a204.037,204.037,0,0,1-24.208-1.061c-0.4-.033-0.64-0.051-0.707-0.051q-0.86,0-1.213,3.789-0.2,2.376-.354,4.75-0.1.758-.909,4.295a29.356,29.356,0,0,0-.708,3.891q0,0.506.809,0.505,6.014,0,16.121-1.011,0.4,13.642.4,17.583,0,5.962-.5,17.886t-0.5,17.886a1.483,1.483,0,0,0,1.415,1.566,69.688,69.688,0,0,0,9.147.4,72.73,72.73,0,0,0,8.894-.4,6.043,6.043,0,0,0,1.415-.253,1.285,1.285,0,0,0,.455-1.213q0-5.961-.48-17.937t-0.48-17.937q0-5.052.3-17.836,13.292,0.758,15.212.758a0.941,0.941,0,0,0,1.112-1.011A30.367,30.367,0,0,0,195.869,14.468Zm65.774-2.7A34.13,34.13,0,0,0,235.768.8q-15.615,0-25.925,10.964Q199.735,22.477,199.735,38.19q0,15.664,10.108,26.324,10.31,10.914,25.925,10.914,15.717,0,25.976-10.813Q271.8,53.955,271.8,38.19q0-15.613-10.158-26.425h0ZM247.9,50.771a16.29,16.29,0,0,1-24.51.3,18.888,18.888,0,0,1-4.5-12.884,18.984,18.984,0,0,1,4.8-12.783,15.936,15.936,0,0,1,24.359-.2,19,19,0,0,1,4.6,12.884A18.724,18.724,0,0,1,247.9,50.771h0ZM315.87,73.558a4.026,4.026,0,0,0,1.288-.227,4.661,4.661,0,0,0,.683-1.238q7.428-14.45,11.37-21.625,9.956-19.907,9.956-23.04,0-3.941.127-11.8T339.42,3.882q0-1.213-1.516-1.213-2.779,0-8.415.278t-8.414.278h-1.617Q319,3.377,319,4.741q0,3.689.1,11.091t0.1,11.091q0,2.224-4.75,12.025-3.538,7.276-6.318,12.278-10.258-19.251-10.259-22.383,0-4.093.582-12.3t0.581-12.3a1.037,1.037,0,0,0-1.264-1.061q-3.083,0-9.248-.253t-9.2-.253q-1.011,0-1.01,1.869,0,3.992-.278,12t-0.278,12q0,2.425,9.147,20.766,5.811,11.419,11.573,22.787a2.5,2.5,0,0,0,1.617,1.465,73.681,73.681,0,0,0,7.783.2q5.408,0,7.985-.2h0ZM368,20q0.581-10.812.581-16.219,0-1.111-1.466-1.112-1.566,0-4.624.152t-4.624.152q-1.567,0-4.725-.152t-4.725-.152a1.006,1.006,0,0,0-1.163,1.112q0,5.407.354,16.219t0.354,16.219q0,6.417-.91,26.88-0.454,9.7-.455,8.893a1.543,1.543,0,0,0,1.466,1.566,64.323,64.323,0,0,0,9.4.4,75.51,75.51,0,0,0,8.793-.4,10.52,10.52,0,0,0,1.314-.2,1.352,1.352,0,0,0,.455-1.263q0-5.961-.3-17.937t-0.3-17.937Q367.418,30.813,368,20Zm40.606,19.251q-0.3-.4-6.721-8.489-3.639-4.5-3.639-7.579a5.938,5.938,0,0,1,3.285-5.356A11.968,11.968,0,0,1,407.9,16.16a10.187,10.187,0,0,1,1.465.152,10.115,10.115,0,0,0,1.365.151,0.782,0.782,0,0,0,.909-0.859,1.192,1.192,0,0,0-.151-0.505q-4.8-9.65-6.115-13.339A1.467,1.467,0,0,0,404.158.548c-0.2,0-.489.017-0.859,0.051a38.372,38.372,0,0,0-17.132,6.568q-8.541,6.114-8.541,15.36a20.568,20.568,0,0,0,3.487,11.621q0.5,0.758,6.469,7.63,3.437,4.043,3.436,7.326,0,5.154-5.256,7.781a53.439,53.439,0,0,1-9.7,2.83,0.755,0.755,0,0,0-.758.707q0,1.567,3.993,8.665t5.155,7.1a5.668,5.668,0,0,0,.657-0.051A36.924,36.924,0,0,0,403.552,67.9q8.641-7.326,8.641-17.583a20.294,20.294,0,0,0-3.588-11.065h0Z" transform="translate(-0.531 -0.563)"/>
</svg>
